<?xml version="1.0" standalone="no"?>
<!DOCTYPE svg PUBLIC "-//W3C//DTD SVG 20010904//EN"
 "http://www.w3.org/TR/2001/REC-SVG-20010904/DTD/svg10.dtd">
<svg version="1.0" xmlns="http://www.w3.org/2000/svg"
 width="1152.000000pt" height="648.000000pt" viewBox="0 0 1152.000000 648.000000"
 preserveAspectRatio="xMidYMid meet">

<g transform="translate(0.000000,648.000000) scale(0.100000,-0.100000)"
fill="#000000" stroke="none">
<path d="M2060 5981 c-72 -22 -113 -58 -151 -131 -22 -42 -24 -61 -29 -255 -6
-235 -9 -247 -80 -307 -64 -55 -84 -58 -449 -58 l-331 0 -10 -26 c-12 -31 -13
-254 -2 -254 5 0 9 -6 9 -13 0 -20 95 -157 105 -151 5 3 8 0 6 -8 -5 -25 128
-221 190 -280 32 -31 81 -67 110 -82 75 -38 78 -31 4 8 -35 19 -70 40 -78 47
-21 17 -8 25 13 8 10 -7 -7 11 -37 41 -33 33 -58 51 -63 45 -5 -6 -7 -4 -6 5
3 22 -12 51 -22 44 -5 -3 -9 -2 -8 3 4 21 -2 34 -13 27 -7 -5 -8 -3 -3 6 5 9
4 11 -3 6 -8 -5 -10 -1 -5 10 5 13 3 15 -8 9 -8 -4 -11 -5 -7 0 4 4 0 14 -10
22 -11 10 -12 12 -2 8 10 -4 9 -2 -2 8 -10 8 -14 18 -10 22 4 5 1 5 -5 1 -9
-5 -11 -2 -6 10 5 13 3 15 -7 9 -9 -6 -11 -4 -5 5 5 8 4 11 -2 7 -6 -4 -10 1
-9 11 0 9 -4 16 -10 15 -7 -1 -11 5 -10 15 0 9 -4 16 -11 15 -8 -2 -10 4 -6
14 5 12 3 14 -7 8 -9 -6 -11 -4 -5 5 5 9 4 11 -3 6 -8 -5 -10 -1 -5 10 4 12 3
15 -6 10 -6 -4 -11 -4 -10 1 3 20 -2 34 -11 28 -6 -4 -10 -3 -9 2 3 19 -2 34
-9 29 -5 -3 -9 0 -9 7 0 7 -4 21 -8 32 -4 11 56 -75 133 -191 151 -227 195
-276 296 -323 89 -42 148 -51 339 -51 193 0 253 11 349 62 70 37 162 133 201
208 15 30 25 44 21 30 -3 -14 -15 -41 -26 -60 -11 -19 -22 -43 -24 -54 -4 -22
-14 -35 -14 -18 0 7 -17 -7 -37 -30 -21 -23 -37 -45 -36 -49 2 -5 -3 -6 -10
-4 -6 2 -25 -7 -42 -22 l-30 -26 28 17 c16 10 31 15 34 13 7 -8 -68 -54 -125
-77 -26 -10 -41 -19 -33 -19 7 -1 43 13 79 31 127 63 233 199 263 338 7 31 9
97 7 154 -4 86 -11 115 -42 195 -44 114 -42 131 22 203 26 28 41 49 35 44 -8
-4 -13 -2 -13 5 0 8 -4 8 -15 -1 -11 -9 -12 -15 -5 -20 7 -5 6 -11 -5 -20 -12
-10 -15 -10 -15 1 0 11 -2 11 -9 -1 -6 -8 -7 -18 -4 -24 3 -5 1 -6 -5 -2 -7 4
-12 2 -12 -5 0 -7 -3 -9 -6 -6 -7 7 36 77 48 77 3 0 20 19 37 42 17 23 31 37
31 31 0 -6 -9 -21 -19 -35 -16 -20 -17 -25 -5 -25 9 0 22 17 31 38 13 34 19
38 56 42 l42 4 -43 1 c-26 1 -41 6 -37 12 3 6 1 10 -4 10 -6 0 -11 4 -11 9 0
4 48 14 107 20 113 13 137 21 167 55 18 21 18 21 2 -6 -14 -24 -14 -28 -1 -28
33 0 31 103 -3 150 -25 33 -72 49 -149 49 -77 1 -103 22 -127 103 -20 69 -77
130 -143 152 -49 17 -187 21 -233 7z m129 -204 c8 -11 5 -14 -19 -14 -31 0
-40 11 -17 20 20 9 24 8 36 -6z m-4 -27 c3 -5 -3 -10 -15 -10 -12 0 -18 5 -15
10 3 6 10 10 15 10 5 0 12 -4 15 -10z m5 -50 c0 -23 -4 -30 -20 -30 -16 0 -20
7 -20 30 0 23 4 30 20 30 16 0 20 -7 20 -30z m272 -20 c25 -15 51 -20 105 -20
51 0 76 -4 87 -15 28 -29 10 -40 -62 -39 l-67 2 63 -7 c119 -12 64 -39 -90
-43 -104 -4 -116 4 -92 55 l17 36 32 -19 c18 -11 39 -20 46 -20 8 1 -1 7 -20
16 -40 17 -37 28 5 15 31 -11 176 -20 168 -11 -3 3 -44 8 -90 11 -65 4 -91 10
-114 27 -16 13 -30 18 -30 13 0 -5 7 -12 16 -15 9 -4 14 -9 11 -13 -4 -3 -13
-1 -20 6 -11 9 -18 3 -32 -29 -10 -22 -20 -38 -22 -36 -5 5 45 106 52 106 2 0
19 -9 37 -20z m-1097 -750 c0 -8 -11 -17 -24 -18 -15 -3 -21 0 -16 8 4 6 14 9
22 6 8 -3 11 -1 8 5 -4 5 -16 7 -27 3 -14 -4 -18 -3 -13 6 10 16 50 8 50 -10z
m-5 -98 l0 -68 83 -61 c91 -67 126 -87 135 -79 3 3 1 6 -4 6 -15 0 -107 60
-101 66 2 3 26 -9 53 -25 26 -17 52 -31 58 -31 5 0 -17 16 -49 36 -33 19 -78
51 -101 70 -44 35 -60 43 -48 22 4 -7 3 -10 -1 -5 -5 4 -10 17 -12 28 l-3 21
27 -21 c154 -118 227 -151 335 -151 96 0 171 25 213 71 19 22 35 35 35 30 0
-15 -42 -63 -74 -83 -27 -17 -28 -19 -6 -13 38 11 12 -11 -35 -30 -31 -12 -33
-14 -10 -10 52 10 105 52 125 101 11 24 25 44 32 44 10 0 10 2 -1 9 -11 7 -10
10 5 14 17 5 17 6 -1 3 -11 -1 -19 -8 -17 -17 3 -11 1 -12 -9 -1 -11 10 -10
15 3 28 26 26 49 11 43 -28 -21 -116 -149 -185 -324 -176 -113 7 -172 31 -293
120 l-98 72 0 63 c0 56 2 63 20 63 18 0 20 -7 20 -68z m80 -102 c19 -16 31
-29 25 -29 -5 0 -26 13 -45 29 -19 16 -30 29 -25 29 6 0 26 -13 45 -29z m518
-52 c-8 -12 -21 -24 -29 -26 -8 -3 -3 7 10 22 30 32 39 34 19 4z m310 -140
c-14 -18 -31 -34 -39 -36 -8 -3 2 12 20 32 43 45 52 47 19 4z m-958 -13 c19
-19 32 -35 29 -35 -3 0 -20 16 -39 35 -19 19 -32 35 -29 35 3 0 20 -16 39 -35z"/>
<path d="M1615 4630 c11 -5 29 -8 40 -8 16 0 15 2 -5 8 -34 11 -60 11 -35 0z"/>
<path d="M1808 4623 c6 -2 18 -2 25 0 6 3 1 5 -13 5 -14 0 -19 -2 -12 -5z"/>
<path d="M1708 4613 c18 -2 45 -2 60 0 15 2 0 4 -33 4 -33 0 -45 -2 -27 -4z"/>
<path d="M1673 4593 c9 -2 25 -2 35 0 9 3 1 5 -18 5 -19 0 -27 -2 -17 -5z"/>
<path d="M1773 4593 c9 -2 23 -2 30 0 6 3 -1 5 -18 5 -16 0 -22 -2 -12 -5z"/>
<path d="M2676 5505 c-11 -8 -15 -15 -9 -15 6 0 16 7 23 15 16 19 11 19 -14 0z"/>
<path d="M2700 5495 c-7 -8 -27 -19 -44 -24 -24 -7 -26 -9 -9 -10 12 -1 35 10
50 24 15 13 25 25 22 25 -4 0 -12 -7 -19 -15z"/>
<path d="M2598 5483 c12 -2 30 -2 40 0 9 3 -1 5 -23 4 -22 0 -30 -2 -17 -4z"/>
<path d="M2518 5473 c12 -2 30 -2 40 0 9 3 -1 5 -23 4 -22 0 -30 -2 -17 -4z"/>
<path d="M2558 5453 c12 -2 30 -2 40 0 9 3 -1 5 -23 4 -22 0 -30 -2 -17 -4z"/>
<path d="M1390 4465 c0 -13 127 -65 170 -70 42 -5 41 -4 -12 10 -32 8 -80 26
-108 40 -27 14 -50 23 -50 20z"/>
<path d="M2110 4440 c-9 -6 -10 -10 -3 -10 6 0 15 5 18 10 8 12 4 12 -15 0z"/>
<path d="M2040 4415 c-19 -7 -28 -14 -20 -14 8 0 29 6 45 14 39 17 21 18 -25
0z"/>
<path d="M1963 4393 c9 -2 23 -2 30 0 6 3 -1 5 -18 5 -16 0 -22 -2 -12 -5z"/>
<path d="M1515 4380 c11 -5 29 -8 40 -8 16 0 15 2 -5 8 -34 11 -60 11 -35 0z"/>
<path d="M1698 4383 c46 -2 118 -2 160 0 42 1 5 3 -83 3 -88 0 -123 -2 -77 -3z"/>
<path d="M1998 4373 c7 -3 16 -2 19 1 4 3 -2 6 -13 5 -11 0 -14 -3 -6 -6z"/>
<path d="M1678 4363 c56 -2 148 -2 205 0 56 1 10 3 -103 3 -113 0 -159 -2
-102 -3z"/>
</g>
</svg>
