<?xml version="1.0" standalone="no"?>
<!DOCTYPE svg PUBLIC "-//W3C//DTD SVG 20010904//EN"
 "http://www.w3.org/TR/2001/REC-SVG-20010904/DTD/svg10.dtd">
<svg version="1.0" xmlns="http://www.w3.org/2000/svg"
 width="1548.000000pt" height="1140.000000pt" viewBox="0 0 1548.000000 1140.000000"
 preserveAspectRatio="xMidYMid meet">

<g transform="translate(0.000000,1140.000000) scale(0.100000,-0.100000)"
fill="#000000" stroke="none">
<path d="M8375 9430 c-94 -14 -170 -32 -213 -51 -23 -10 -47 -19 -52 -19 -9 0
-59 -27 -135 -73 -73 -44 -223 -188 -256 -247 -11 -19 -31 -53 -44 -75 -14
-22 -28 -47 -31 -55 -3 -8 -14 -32 -24 -52 -11 -20 -20 -44 -20 -53 0 -9 -8
-32 -18 -53 -11 -20 -26 -84 -35 -142 -14 -89 -17 -211 -20 -795 l-2 -690 -24
-70 c-13 -38 -33 -90 -45 -115 -79 -169 -262 -358 -417 -432 -118 -55 -147
-68 -160 -68 -8 -1 -39 -9 -69 -20 -53 -19 -96 -19 -1372 -20 l-1317 0 -36
-31 c-19 -17 -38 -43 -42 -58 -3 -14 -15 -42 -25 -61 -18 -33 -19 -61 -17
-470 0 -239 5 -452 11 -473 5 -21 16 -41 24 -44 8 -3 13 -12 10 -19 -3 -7 6
-27 19 -43 14 -16 25 -36 25 -44 0 -25 22 -32 36 -12 8 10 17 16 21 12 3 -4
-1 -15 -9 -24 -16 -18 -13 -38 10 -64 7 -8 19 -23 26 -34 14 -19 15 -19 35 -1
35 32 21 95 -14 66 -12 -10 -13 -6 -8 23 4 29 2 36 -16 42 -14 4 -21 15 -21
30 0 28 -17 42 -33 26 -19 -19 -27 -12 -15 14 9 20 8 28 -5 43 -10 10 -17 28
-17 39 0 11 -9 30 -20 43 -23 27 -26 60 -5 60 8 0 20 -10 26 -22 6 -13 26 -41
43 -63 17 -22 37 -51 44 -65 22 -44 37 -66 55 -84 9 -10 17 -23 17 -30 0 -7 9
-21 20 -31 11 -10 20 -23 20 -30 0 -7 9 -20 20 -30 11 -10 20 -23 20 -30 0 -7
9 -20 20 -30 11 -10 20 -23 20 -30 0 -7 9 -20 19 -29 11 -10 22 -28 25 -42 4
-13 11 -24 16 -24 5 0 17 -15 25 -32 24 -52 42 -80 55 -88 13 -8 31 -36 55
-87 8 -18 20 -33 25 -33 6 0 15 -10 20 -22 12 -27 43 -79 88 -142 17 -26 32
-51 32 -55 0 -4 9 -16 20 -26 11 -10 20 -22 20 -26 0 -4 15 -29 33 -55 34 -48
71 -108 83 -134 4 -8 13 -19 21 -23 7 -4 20 -22 28 -40 29 -60 46 -87 55 -87
5 0 11 -9 15 -19 3 -11 33 -54 65 -97 33 -42 60 -80 60 -85 0 -14 244 -253
291 -284 24 -16 65 -46 90 -67 26 -21 50 -38 54 -38 4 0 19 -8 33 -19 23 -16
87 -52 159 -90 44 -22 187 -85 228 -99 91 -31 87 -30 213 -61 20 -6 69 -15
107 -21 39 -6 90 -15 115 -20 25 -5 342 -9 706 -9 629 -1 665 0 739 19 43 11
95 20 116 20 21 0 61 9 89 20 28 11 62 20 75 20 14 0 42 9 62 20 21 11 47 20
58 20 11 0 34 9 50 20 17 11 40 20 51 20 12 0 33 9 47 20 14 11 30 20 37 20 7
0 23 9 37 20 14 11 34 20 43 20 10 0 23 7 30 16 8 8 27 22 44 30 45 21 78 41
85 51 3 4 33 26 66 47 92 60 415 388 415 422 0 2 18 27 40 55 22 28 40 56 40
62 0 6 7 19 17 29 20 22 36 49 62 104 11 23 24 45 30 48 6 4 11 18 11 32 0 13
9 33 20 44 11 11 20 28 20 38 0 28 12 62 21 62 15 0 10 -67 -6 -80 -8 -7 -15
-27 -15 -45 0 -18 -9 -44 -20 -58 -11 -14 -20 -32 -20 -41 0 -20 -78 -167 -96
-182 -8 -6 -14 -22 -14 -35 0 -13 -9 -30 -20 -37 -24 -15 -25 -30 -4 -53 11
-12 12 -19 4 -24 -7 -4 -14 2 -17 15 -7 27 -46 24 -52 -5 -2 -11 -9 -24 -16
-30 -7 -5 -16 -20 -20 -32 -5 -19 -2 -23 14 -23 16 0 21 -6 21 -25 0 -18 -5
-25 -20 -25 -13 0 -20 -7 -20 -20 0 -10 -6 -23 -13 -27 -7 -4 -20 -19 -28 -33
-23 -35 -136 -147 -186 -183 -24 -17 -43 -34 -43 -39 0 -5 -11 -13 -25 -18
-14 -5 -25 -16 -25 -25 0 -8 -7 -15 -16 -15 -9 0 -18 -9 -21 -20 -3 -11 -13
-20 -23 -20 -9 0 -29 -9 -43 -20 -14 -11 -30 -20 -36 -20 -6 0 -15 -9 -21 -20
-6 -11 -20 -20 -30 -20 -11 0 -28 -9 -37 -20 -10 -11 -23 -20 -29 -20 -6 0
-23 -9 -37 -20 -14 -11 -32 -20 -40 -20 -8 0 -26 -9 -40 -20 -14 -11 -31 -20
-39 -20 -7 0 -25 -8 -38 -18 -14 -9 -43 -21 -64 -27 -22 -5 -41 -16 -44 -22
-6 -20 52 -16 79 6 13 10 40 21 60 25 21 4 42 13 49 21 7 8 21 15 31 15 11 0
27 9 36 20 10 11 25 20 34 20 9 0 26 9 39 20 13 11 31 20 41 20 10 0 23 8 28
19 6 10 21 21 33 24 13 4 41 22 62 42 21 19 40 35 43 35 24 0 303 256 303 278
0 7 4 12 9 12 5 0 18 15 30 33 11 17 26 41 33 52 7 11 21 26 31 33 9 7 17 20
17 28 0 8 5 14 11 14 5 0 16 15 24 34 8 19 19 37 25 41 5 3 10 14 10 23 0 10
9 25 20 35 11 9 20 23 20 30 0 8 9 22 20 32 11 10 20 22 20 27 0 5 20 51 45
104 25 52 45 99 45 105 0 5 9 27 20 49 11 22 20 49 20 60 0 11 9 38 20 60 11
22 20 54 20 72 0 18 9 63 19 101 40 138 37 720 -4 851 -8 27 -15 61 -15 76 0
16 -9 47 -20 71 -11 24 -20 55 -20 67 0 13 -7 38 -15 55 -13 30 -27 68 -55
147 -7 19 -21 52 -31 72 -10 20 -19 44 -19 52 0 9 -9 35 -19 58 -10 24 -28 67
-40 96 -12 28 -31 74 -42 101 -23 53 -22 75 8 181 20 73 94 219 116 231 9 5
17 16 17 24 0 8 6 15 14 15 8 0 18 9 21 20 3 11 10 20 15 20 11 0 150 136 150
147 0 4 9 14 20 21 11 7 20 18 20 26 0 7 6 19 14 25 8 7 18 25 21 41 3 16 13
31 21 34 8 3 14 12 14 20 0 8 11 36 25 62 14 26 25 53 25 59 0 18 50 125 58
125 255 8 302 12 302 29 0 4 -66 6 -147 5 -82 -1 -156 3 -165 8 -26 13 -22 33
10 57 l27 20 -33 1 c-25 0 -35 6 -44 25 -20 43 -1 51 135 58 67 4 149 13 182
22 33 8 94 15 136 15 41 0 124 9 184 20 60 11 127 20 149 20 71 0 172 47 233
110 86 88 103 107 103 119 0 6 5 11 10 11 13 0 12 -10 -5 -40 -8 -14 -14 -35
-15 -47 0 -22 -120 -153 -139 -153 -6 0 -15 -9 -21 -20 -6 -11 -20 -20 -31
-20 -25 0 -59 -17 -59 -30 0 -18 60 -10 77 10 10 11 21 20 25 20 4 0 31 18 60
40 38 29 61 40 82 38 24 -3 30 2 38 27 6 17 18 49 28 71 16 35 18 59 14 150
-3 60 -12 134 -21 164 -28 97 -85 202 -137 252 -101 99 -177 118 -456 118
-245 0 -303 11 -391 72 -35 25 -83 68 -106 97 -35 42 -43 59 -43 94 -1 23 -8
60 -16 82 -9 22 -19 54 -23 70 -28 105 -114 260 -204 368 -72 86 -281 237
-330 237 -7 0 -25 7 -41 15 -26 14 -62 23 -211 55 -48 11 -529 10 -600 0z
m338 -816 c39 -20 76 -62 77 -88 0 -15 -5 -17 -30 -13 -37 8 -47 -7 -18 -27
18 -13 21 -20 12 -34 -19 -30 -164 -21 -164 10 0 23 51 58 86 58 41 0 48 26 9
36 -24 6 -34 1 -91 -41 -20 -14 -38 9 -30 39 6 24 76 76 104 76 7 0 27 -7 45
-16z m22 -229 c22 -21 25 -33 25 -102 0 -105 -13 -123 -83 -123 -58 0 -69 5
-86 37 -23 44 -8 173 25 206 4 4 27 7 51 7 33 0 50 -6 68 -25z m1047 -146 c31
-25 91 -64 135 -84 l78 -38 255 -4 c297 -5 344 -14 399 -83 36 -45 39 -65 10
-80 -12 -7 -18 -18 -15 -26 3 -8 -3 -23 -14 -34 -24 -24 -24 -29 -4 -51 14
-15 13 -19 -11 -45 -27 -29 -58 -36 -295 -64 -52 -6 -160 -20 -240 -31 -195
-26 -268 -25 -369 6 -111 33 -151 58 -151 95 0 16 4 31 9 34 8 5 31 50 87 171
15 33 32 63 37 66 16 11 44 -2 78 -37 18 -19 40 -34 49 -34 8 0 21 -9 28 -20
7 -12 23 -20 39 -20 14 0 35 -8 45 -17 12 -11 41 -18 81 -20 56 -4 60 -3 44
11 -10 8 -42 17 -70 21 -31 4 -59 15 -70 26 -10 11 -29 19 -42 19 -14 0 -29 8
-35 20 -6 11 -17 20 -24 20 -8 0 -16 7 -20 15 -3 8 -17 20 -31 25 -14 5 -25
14 -25 19 0 5 -13 14 -29 21 -16 6 -32 19 -35 27 -8 21 -36 -2 -36 -29 0 -11
-9 -31 -20 -45 -11 -14 -20 -34 -20 -43 0 -10 -7 -23 -15 -30 -8 -7 -15 -18
-15 -24 0 -6 -11 -32 -25 -58 -14 -26 -25 -54 -25 -62 0 -23 -20 -30 -37 -14
-13 13 -13 19 1 49 9 19 20 41 25 49 5 8 14 26 20 40 11 26 24 48 53 92 10 15
18 36 18 46 0 11 9 31 20 45 11 14 20 32 20 40 0 7 9 24 20 37 11 13 20 29 20
36 0 14 21 24 35 16 6 -3 35 -27 67 -53z m-62 -1043 c0 -36 -78 -196 -95 -196
-8 0 -15 -5 -15 -12 0 -14 -169 -182 -192 -191 -10 -3 -18 -12 -18 -19 0 -7
-9 -19 -20 -26 -20 -12 -28 -62 -10 -62 5 0 18 12 27 27 10 15 34 41 53 58 19
16 65 61 102 99 55 56 71 67 81 57 10 -10 8 -16 -10 -28 -13 -9 -23 -26 -23
-38 0 -14 -7 -25 -20 -28 -11 -3 -20 -12 -20 -21 0 -9 -7 -16 -16 -16 -9 0
-18 -9 -21 -20 -3 -11 -12 -20 -20 -20 -8 0 -17 -9 -20 -19 -3 -11 -13 -21
-24 -24 -10 -3 -19 -12 -19 -20 0 -8 -9 -17 -20 -20 -11 -3 -20 -12 -20 -21 0
-9 -8 -16 -20 -16 -13 0 -20 7 -20 20 0 11 -7 20 -15 20 -8 0 -15 -9 -15 -20
0 -11 5 -20 10 -20 6 0 10 -9 10 -20 0 -21 -24 -28 -35 -10 -11 18 -22 11 -31
-22 -5 -17 -15 -33 -22 -36 -18 -6 -15 53 3 68 8 7 15 25 15 40 0 15 9 35 20
45 11 10 20 22 20 27 0 18 100 134 142 166 24 18 53 45 65 60 12 15 42 53 68
84 25 31 45 61 45 66 0 5 9 17 20 27 11 10 20 24 20 32 0 20 19 53 30 53 6 0
10 -11 10 -24z m-4323 -1908 c15 -7 38 -24 50 -38 35 -40 29 -79 -9 -59 -30
16 -45 -5 -18 -24 13 -9 20 -23 18 -34 -3 -15 -13 -18 -63 -18 -78 0 -95 4
-95 24 1 32 36 61 74 61 37 0 51 22 21 34 -18 6 -61 -8 -66 -23 -2 -5 -16 -13
-31 -16 -60 -15 -38 63 25 90 40 18 59 18 94 3z m17 -214 c24 -23 25 -40 29
-295 l3 -236 34 -31 c19 -17 40 -32 46 -32 6 0 19 -9 29 -20 10 -11 24 -20 32
-20 7 0 13 -4 13 -8 0 -13 128 -112 145 -112 8 0 15 -7 15 -15 0 -9 8 -19 18
-22 17 -6 63 -40 93 -68 9 -8 21 -15 27 -15 6 0 16 -9 22 -20 6 -11 16 -20 23
-20 7 0 20 -9 30 -20 9 -11 23 -20 30 -20 8 0 22 -9 32 -20 10 -11 23 -20 30
-20 7 0 20 -9 30 -20 10 -11 28 -20 39 -20 12 0 27 -9 34 -20 12 -20 72 -30
72 -12 0 16 -25 32 -50 32 -14 0 -30 8 -38 20 -7 11 -20 20 -31 20 -10 0 -26
9 -36 20 -10 11 -23 20 -29 20 -6 0 -17 9 -24 20 -7 11 -20 20 -31 20 -10 0
-26 9 -36 20 -10 11 -24 20 -32 20 -7 0 -13 7 -13 15 0 9 -8 19 -17 22 -10 4
-24 15 -31 25 -7 10 -21 18 -30 18 -10 0 -25 9 -35 20 -9 11 -24 20 -32 20 -8
0 -15 7 -15 15 0 9 -8 19 -17 22 -10 4 -24 15 -31 25 -7 10 -19 18 -26 18 -7
0 -21 9 -31 20 -10 11 -24 20 -31 20 -7 0 -18 9 -24 20 -6 11 -17 20 -25 20
-8 0 -15 7 -15 15 0 9 -10 19 -22 24 -32 12 -61 48 -55 66 8 19 37 20 37 1 0
-14 21 -29 86 -60 17 -9 34 -22 37 -31 4 -8 13 -15 22 -15 8 0 15 -7 15 -15 0
-9 10 -19 23 -24 13 -5 29 -16 36 -25 7 -9 19 -16 26 -16 6 0 20 -9 30 -20 10
-11 24 -20 31 -20 7 0 16 -9 19 -20 3 -11 12 -20 20 -20 7 0 15 -7 18 -15 4
-8 21 -22 39 -30 66 -32 77 -40 81 -57 3 -10 14 -18 25 -18 10 0 27 -9 37 -20
10 -11 25 -20 34 -20 9 0 24 -9 34 -20 9 -11 27 -20 39 -20 13 0 29 -9 36 -20
8 -13 23 -20 42 -20 16 0 33 -7 38 -16 10 -18 92 -32 92 -16 0 15 -33 32 -63
32 -13 0 -32 9 -42 20 -10 11 -30 20 -44 20 -15 0 -31 8 -39 20 -7 11 -23 20
-36 20 -13 0 -26 6 -29 14 -6 14 -31 30 -93 60 -17 9 -34 22 -37 31 -4 8 -13
15 -22 15 -8 0 -15 4 -15 9 0 11 -86 71 -100 71 -5 0 -14 9 -20 20 -6 11 -14
20 -19 20 -5 0 -26 16 -47 35 -21 20 -49 38 -62 42 -12 3 -27 14 -33 24 -5 11
-13 19 -18 19 -5 0 -28 18 -52 40 -24 22 -48 40 -54 40 -16 0 -85 68 -85 83 0
8 6 20 13 26 11 8 24 2 58 -29 24 -22 47 -40 50 -40 4 0 52 -35 108 -77 55
-43 136 -105 180 -138 45 -33 102 -76 128 -96 27 -20 62 -44 78 -53 17 -9 44
-25 60 -36 17 -11 41 -25 55 -31 14 -6 43 -19 65 -29 22 -10 61 -27 88 -39 26
-11 54 -21 61 -21 8 0 33 -9 57 -20 24 -11 58 -20 74 -20 17 0 56 -9 88 -20
51 -18 82 -20 306 -20 221 0 256 2 313 20 34 11 76 20 91 20 15 0 45 9 67 20
22 11 48 20 59 20 24 0 99 32 176 75 72 40 208 190 242 268 7 15 17 27 23 27
17 0 11 -65 -7 -91 -10 -13 -27 -42 -38 -64 -20 -41 -70 -95 -86 -95 -5 0 -12
-7 -16 -16 -7 -19 -51 -64 -62 -64 -4 0 -16 -9 -26 -20 -10 -11 -26 -20 -36
-20 -11 0 -24 -9 -31 -20 -8 -13 -24 -20 -43 -20 -30 0 -55 -15 -55 -32 0 -16
61 -7 80 12 11 11 31 20 44 20 14 0 31 8 38 18 7 10 21 21 31 25 9 3 17 13 17
22 0 8 7 15 15 15 8 0 19 9 25 20 6 11 17 20 24 20 8 0 16 7 20 15 7 19 36 20
36 1 0 -7 -9 -25 -20 -39 -11 -14 -20 -29 -20 -34 0 -10 -65 -63 -78 -63 -5 0
-16 -7 -23 -16 -7 -9 -23 -20 -36 -25 -13 -5 -23 -15 -23 -23 0 -9 -12 -16
-32 -18 -21 -2 -33 -8 -33 -18 0 -23 42 -25 54 -2 6 11 24 22 41 25 42 9 210
178 210 212 0 16 -6 25 -15 25 -8 0 -15 7 -15 15 0 20 17 19 28 -1 12 -21 32
-9 32 19 0 12 12 40 25 62 14 22 25 46 25 54 0 7 12 32 28 56 23 36 32 42 61
41 19 -1 36 4 38 10 7 20 -28 24 -63 8 -28 -13 -40 -14 -60 -6 -13 7 -23 15
-22 19 1 5 -2 20 -6 34 -6 20 -1 37 18 67 32 50 52 62 108 62 35 0 50 -6 70
-27 38 -41 43 -68 17 -86 -16 -12 -20 -22 -15 -42 5 -18 2 -27 -9 -31 -12 -5
-14 -17 -9 -59 6 -45 3 -58 -15 -83 -11 -17 -21 -34 -21 -39 0 -10 -2 -13 -81
-113 -74 -95 -163 -171 -263 -224 -24 -13 -54 -30 -67 -39 -13 -10 -33 -17
-44 -17 -11 0 -35 -9 -53 -20 -18 -11 -46 -20 -62 -20 -17 0 -47 -9 -67 -20
-21 -11 -56 -20 -79 -20 -23 0 -59 -7 -80 -16 -54 -24 -562 -28 -639 -6 -27 7
-79 17 -115 21 -36 4 -78 15 -95 24 -16 9 -43 17 -60 17 -16 0 -43 9 -60 20
-16 11 -38 20 -47 20 -19 0 -243 113 -299 151 -20 13 -69 46 -109 73 -39 26
-80 56 -90 66 -11 11 -43 36 -73 57 -30 21 -81 61 -115 88 -33 28 -95 75 -136
105 -147 106 -166 123 -172 145 -3 12 -4 120 -2 239 3 202 4 219 22 232 27 19
100 18 120 -2z m3784 -1287 c2 -12 -3 -17 -17 -17 -12 0 -21 6 -21 13 0 31 32
34 38 4z"/>
<path d="M9692 8193 c2 -23 8 -29 36 -31 20 -2 32 -9 32 -18 0 -8 8 -18 18
-21 9 -4 28 -15 41 -25 27 -21 65 -24 59 -5 -3 6 -14 17 -26 23 -12 6 -30 18
-40 27 -10 10 -23 17 -28 17 -5 1 -25 14 -44 30 -43 37 -52 38 -48 3z"/>
<path d="M9890 8066 c0 -16 21 -26 58 -26 14 0 34 -8 44 -17 16 -14 51 -17
286 -17 l268 -1 33 -27 c18 -16 39 -28 48 -28 28 0 8 33 -33 55 -39 21 -58 22
-317 27 -263 5 -276 6 -302 26 -31 25 -85 30 -85 8z"/>
<path d="M10140 7910 c-19 -12 -28 -11 180 -15 96 -2 199 -7 228 -10 49 -6 53
-5 50 12 -3 17 -19 18 -223 20 -131 2 -226 -1 -235 -7z"/>
<path d="M7982 4577 c-12 -13 -22 -32 -22 -43 1 -17 3 -17 21 6 18 22 29 25
80 24 50 -1 59 2 57 15 -2 12 -17 17 -58 19 -48 2 -59 -1 -78 -21z"/>
<path d="M6390 4036 c0 -18 38 -36 76 -36 49 0 58 15 18 30 -25 10 -94 14 -94
6z"/>
<path d="M7413 4030 c-34 -14 -28 -30 11 -30 44 0 66 9 66 26 0 16 -42 18 -77
4z"/>
<path d="M6250 3987 c0 -16 21 -27 52 -27 13 0 18 6 16 18 -4 22 -68 31 -68 9z"/>
<path d="M6520 3990 c0 -17 47 -30 106 -30 63 0 71 14 17 29 -49 14 -123 14
-123 1z"/>
<path d="M7242 3990 c-47 -11 -49 -18 -7 -26 46 -8 127 6 133 24 4 14 -70 15
-126 2z"/>
<path d="M6357 3953 c-14 -14 -6 -22 29 -29 46 -9 69 11 30 26 -32 12 -50 13
-59 3z"/>
<path d="M6730 3950 c0 -18 53 -24 210 -24 160 -1 234 8 195 24 -29 12 -405
12 -405 0z"/>
<path d="M7466 3941 c-3 -5 0 -11 7 -14 18 -7 67 3 67 14 0 12 -67 12 -74 0z"/>
<path d="M6474 3901 c8 -12 62 -22 81 -15 27 11 4 24 -41 24 -25 0 -43 -4 -40
-9z"/>
<path d="M7330 3901 c0 -14 35 -23 64 -15 41 10 30 24 -19 24 -25 0 -45 -4
-45 -9z"/>
<path d="M6635 3861 c-3 -5 -1 -12 5 -16 12 -8 230 -2 230 6 0 16 -225 25
-235 10z"/>
<path d="M7065 3861 c-17 -7 -15 -10 15 -15 49 -10 165 -3 165 9 0 12 -152 17
-180 6z"/>
<path d="M10847 7523 c-4 -3 -7 -14 -7 -24 0 -9 -9 -19 -20 -22 -11 -3 -20
-12 -20 -21 0 -9 -6 -16 -13 -16 -8 0 -22 -9 -32 -20 -10 -11 -26 -20 -35 -20
-17 0 -40 -18 -40 -32 0 -16 51 -7 67 12 10 11 21 20 26 20 10 0 67 55 67 65
0 4 10 15 22 24 12 10 18 23 14 29 -8 13 -19 15 -29 5z"/>
<path d="M10410 7435 c-8 -2 -32 -6 -52 -10 -70 -11 -39 -25 55 -24 114 1 179
10 185 27 3 9 -18 12 -85 11 -48 -1 -95 -3 -103 -4z"/>
<path d="M10060 7393 c-57 -6 -80 -13 -80 -24 0 -8 39 -10 128 -7 127 5 167
12 156 29 -5 9 -129 10 -204 2z"/>
<path d="M10610 7353 c-68 -6 -100 -14 -100 -23 0 -11 92 -12 128 -2 13 4 23
11 23 17 1 12 -6 13 -51 8z"/>
<path d="M10227 7309 c-32 -4 -64 -12 -70 -19 -10 -10 15 -11 122 -6 73 3 141
11 150 16 13 8 14 10 1 11 -38 5 -151 3 -203 -2z"/>
<path d="M4227 5020 c-9 -11 -17 -27 -17 -34 0 -18 51 -96 62 -96 4 0 8 -7 8
-15 0 -8 8 -23 18 -33 9 -9 23 -30 30 -46 9 -19 18 -27 30 -24 15 4 17 0 14
-22 -2 -16 3 -31 12 -39 9 -8 16 -19 16 -27 0 -7 8 -20 17 -29 15 -16 18 -15
34 7 15 18 19 20 19 6 0 -9 -4 -20 -10 -23 -15 -9 -12 -41 4 -54 12 -10 17 -8
26 9 6 12 14 19 17 16 3 -3 1 -11 -4 -18 -21 -27 -22 -49 -5 -66 27 -29 62
-80 62 -92 0 -5 10 -20 23 -32 24 -25 38 -46 61 -95 8 -18 20 -33 25 -33 6 0
11 -5 11 -12 0 -13 46 -83 73 -110 9 -10 17 -22 17 -28 0 -11 41 -72 64 -95 9
-9 16 -25 16 -35 0 -28 19 -34 41 -14 22 20 25 13 7 -16 -10 -16 -10 -24 -1
-38 7 -9 19 -32 27 -49 8 -18 19 -33 24 -33 6 0 13 -11 16 -25 4 -14 11 -25
17 -25 5 0 15 -13 20 -30 6 -16 15 -30 20 -30 5 0 14 -11 19 -25 5 -14 17 -28
25 -31 8 -4 15 -12 15 -20 0 -20 284 -304 304 -304 9 0 16 -7 16 -15 0 -9 11
-20 25 -25 14 -5 25 -14 25 -20 0 -5 11 -12 24 -16 14 -3 32 -14 42 -25 9 -10
22 -19 28 -19 7 0 19 -9 29 -20 9 -11 23 -20 30 -20 8 0 22 -9 32 -20 10 -11
28 -20 40 -20 12 0 30 -9 40 -20 10 -11 27 -20 37 -20 11 0 31 -9 45 -20 27
-21 73 -27 73 -10 0 12 -33 30 -54 30 -9 0 -25 9 -36 20 -11 11 -27 20 -36 20
-9 0 -27 9 -41 20 -14 11 -33 20 -42 20 -9 0 -22 9 -29 20 -7 11 -22 20 -35
20 -12 0 -28 9 -35 20 -7 11 -18 20 -26 20 -8 0 -16 6 -19 14 -6 14 -36 34
-89 58 -15 6 -29 20 -31 30 -3 10 -12 18 -20 18 -8 0 -17 9 -20 20 -3 11 -12
20 -21 20 -9 0 -16 7 -16 15 0 9 -8 19 -17 22 -23 8 -58 43 -66 66 -3 9 -13
17 -21 17 -7 0 -16 9 -19 20 -3 11 -12 20 -20 20 -8 0 -17 9 -20 20 -3 11 -12
20 -21 20 -9 0 -16 8 -16 20 0 13 -7 20 -20 20 -14 0 -20 7 -20 24 0 15 -7 26
-20 29 -13 3 -20 14 -20 30 0 16 -7 26 -20 30 -24 6 -28 47 -5 47 22 0 18 38
-5 45 -13 4 -20 15 -20 30 0 28 -17 42 -33 26 -6 -6 -15 -11 -21 -11 -6 0 -5
5 2 12 19 19 14 56 -8 68 -12 6 -20 21 -20 35 0 27 -18 33 -38 13 -6 -6 -15
-9 -19 -5 -4 4 -1 13 5 19 18 18 14 46 -8 60 -11 7 -20 20 -20 30 0 25 -19 32
-39 14 -27 -25 -34 -19 -15 13 21 36 13 65 -17 56 -19 -6 -20 -4 -14 29 6 28
4 37 -10 42 -9 4 -21 17 -26 30 -4 13 -15 24 -24 24 -10 0 -15 10 -15 31 0 22
-5 32 -20 36 -11 3 -20 14 -20 24 0 21 -45 90 -66 102 -8 4 -14 16 -14 26 0
10 -6 24 -14 30 -8 7 -17 23 -20 36 -4 14 -12 25 -19 25 -13 0 -30 29 -57 93
-7 15 -18 27 -26 27 -8 0 -17 14 -21 30 -7 39 -21 47 -38 24 -17 -24 -33 -9
-17 16 27 43 -4 72 -34 33 -12 -17 -13 -17 -14 -1 0 9 5 20 10 23 19 11 11 57
-10 62 -13 3 -20 14 -20 29 0 29 -20 31 -43 4z"/>
<path d="M5040 3814 c0 -9 9 -18 20 -21 13 -3 20 -14 20 -29 0 -15 6 -24 15
-24 9 0 21 -11 27 -25 6 -14 17 -25 25 -25 7 0 13 -9 13 -21 0 -12 8 -23 19
-26 11 -3 21 -13 24 -24 3 -10 12 -19 21 -19 9 0 16 -7 16 -16 0 -9 9 -18 19
-21 11 -3 21 -13 24 -24 3 -10 12 -19 21 -19 9 0 16 -7 16 -15 0 -9 10 -20 23
-25 12 -5 40 -23 62 -40 22 -16 47 -33 57 -36 9 -3 18 -14 21 -25 3 -10 14
-19 24 -19 10 0 26 -9 36 -20 9 -11 25 -20 34 -20 10 0 24 -9 31 -20 7 -11 22
-20 35 -20 12 0 28 -9 35 -20 7 -11 23 -20 36 -20 12 0 31 -9 41 -20 10 -11
31 -20 46 -20 18 0 32 -7 39 -20 11 -21 64 -28 75 -11 7 12 -26 31 -54 31 -12
0 -30 9 -41 20 -11 11 -28 20 -38 20 -10 0 -25 9 -35 20 -9 11 -27 20 -40 20
-12 0 -30 9 -40 20 -9 11 -26 20 -37 20 -10 0 -24 9 -30 20 -6 11 -19 20 -29
20 -10 0 -26 9 -36 20 -10 11 -24 20 -31 20 -7 0 -18 9 -24 20 -6 11 -17 20
-25 20 -8 0 -15 4 -15 9 0 4 -28 30 -62 57 -35 27 -94 79 -132 116 -38 38 -73
68 -77 68 -5 0 -9 7 -9 15 0 8 -9 20 -20 27 -11 7 -20 19 -20 26 0 16 -54 72
-69 72 -6 0 -11 -7 -11 -16z"/>
<path d="M9085 3740 c-3 -11 -13 -20 -22 -20 -8 0 -17 -9 -20 -20 -3 -11 -12
-20 -20 -20 -8 0 -17 -9 -20 -19 -3 -11 -13 -21 -24 -24 -10 -3 -19 -12 -19
-21 0 -9 -7 -16 -16 -16 -9 0 -18 -9 -21 -20 -3 -10 -14 -22 -24 -25 -10 -4
-19 -13 -19 -21 0 -8 -6 -14 -13 -14 -8 0 -22 -9 -32 -20 -10 -11 -23 -20 -29
-20 -6 0 -31 -18 -55 -40 -24 -22 -47 -40 -51 -40 -4 0 -15 -9 -25 -20 -10
-11 -26 -20 -36 -20 -11 0 -24 -9 -31 -20 -7 -11 -20 -20 -29 -20 -9 0 -24 -9
-34 -20 -10 -11 -26 -20 -37 -20 -10 0 -27 -9 -38 -20 -11 -11 -27 -20 -36
-20 -21 0 -54 -18 -54 -30 0 -18 60 -10 77 10 10 11 27 20 39 20 11 0 29 9 39
20 10 11 26 20 36 20 10 0 23 9 29 20 6 11 20 20 30 20 11 0 28 9 37 20 10 11
23 20 30 20 7 0 17 9 23 20 6 11 20 20 30 20 11 0 28 9 37 20 10 11 21 20 26
20 12 0 67 56 67 68 0 5 9 12 20 15 11 3 20 12 20 20 0 8 9 17 20 20 11 3 20
12 20 20 0 8 9 17 20 20 11 3 20 12 20 20 0 8 9 17 20 20 11 3 20 12 20 20 0
8 9 17 20 20 11 3 20 12 20 20 0 8 9 17 20 20 11 3 20 12 20 21 0 23 -27 20
-35 -4z"/>
<path d="M8298 3189 c-28 -16 -21 -29 15 -29 31 0 57 14 57 32 0 11 -52 9 -72
-3z"/>
<path d="M5940 3151 c0 -14 42 -31 76 -31 23 0 32 14 16 24 -21 13 -92 18 -92
7z"/>
<path d="M8179 3141 c-14 -10 -49 -20 -83 -24 -32 -3 -65 -12 -75 -20 -10 -9
-50 -17 -104 -21 -49 -3 -101 -13 -117 -21 -25 -13 -124 -15 -687 -15 -525 0
-655 -3 -645 -12 18 -18 1174 -24 1247 -7 28 6 101 15 162 19 84 5 117 11 131
23 11 11 36 17 63 17 27 0 55 8 74 20 17 11 44 20 62 20 41 0 63 9 63 26 0 21
-63 18 -91 -5z"/>
<path d="M6050 3110 c0 -17 37 -30 84 -30 48 0 59 12 27 30 -25 13 -111 13
-111 0z"/>
<path d="M5880 3070 c0 -15 35 -30 69 -30 38 0 40 17 5 30 -33 13 -74 13 -74
0z"/>
<path d="M6206 3066 c7 -18 50 -26 140 -26 83 0 96 12 30 29 -67 17 -177 15
-170 -3z"/>
<path d="M5996 3032 c-9 -16 27 -32 70 -32 21 0 46 -7 56 -17 23 -20 158 -33
158 -15 0 14 -64 32 -114 32 -22 0 -47 7 -56 15 -21 19 -105 31 -114 17z"/>
<path d="M8133 3030 c-35 -14 -27 -30 13 -30 38 0 74 15 74 30 0 12 -57 12
-87 0z"/>
<path d="M7963 2990 c-39 -16 -26 -30 26 -30 57 0 105 15 96 30 -8 12 -92 12
-122 0z"/>
<path d="M7095 2950 c-540 -3 -771 -8 -750 -15 36 -12 1495 -14 1538 -2 30 8
38 28 10 25 -10 -2 -369 -5 -798 -8z"/>
</g>
</svg>
